<?xml version="1.0" encoding="utf-8"?>
<!-- Generator: Adobe Illustrator 23.0.3, SVG Export Plug-In . SVG Version: 6.00 Build 0)  -->
<svg version="1.1" id="Layer_1" xmlns="http://www.w3.org/2000/svg" xmlns:xlink="http://www.w3.org/1999/xlink" x="0px" y="0px"
	 viewBox="0 0 512 512" style="enable-background:new 0 0 512 512;" xml:space="preserve">
<style type="text/css">
	.st0{fill:#607D8B;}
</style>
<g>
	<path class="st0" d="M320,256c0,35.3-28.7,64-64,64s-64-28.7-64-64s28.7-64,64-64S320,220.7,320,256z"/>
	<path class="st0" d="M128,256c0,35.3-28.7,64-64,64S0,291.3,0,256s28.7-64,64-64S128,220.7,128,256z"/>
	<path class="st0" d="M512,256c0,35.3-28.7,64-64,64s-64-28.7-64-64s28.7-64,64-64S512,220.7,512,256z"/>
</g>
</svg>
