<?xml version="1.0" ?><svg style="enable-background:new 0 0 48 48;" version="1.1" viewBox="0 0 48 48" xml:space="preserve" xmlns="http://www.w3.org/2000/svg" xmlns:xlink="http://www.w3.org/1999/xlink"><g id="Icons"><g><path d="M32.47499,14.57707l1.11335-1.05685c0.30625-0.29071,0.78585-0.29285,1.09468-0.00488    l0.2679,0.2498c0.32159,0.29986,0.34037,0.80323,0.04202,1.12622l-1.12424,1.21711    C33.8687,16.10846,32.34797,16.17021,32.47499,14.57707z" style="fill:#EA3953;"/><polygon points="29.96588,23.6517 30.03074,34.82095 12.82035,34.92089 12.81231,33.53614     12.72042,17.7105 25.6244,17.63557 29.93081,17.61056   " style="fill:#0097D3;"/><path d="M33.77764,16.07605L19.16127,30.81526l-2.75581,1.30923l1.2503-2.72825l14.81923-14.81918    C32.47499,14.57707,32.1696,15.8961,33.77764,16.07605z" style="fill:#FFCC66;"/><path d="    M34.98719,14.89805l-5.87622,5.87622L19.0811,30.78663l-2.73701,1.33787l1.31166-2.72825l10.90431-10.90425l1.69642-1.69642    l0.46343-0.46348l0.61212-0.61207l2.23857-2.23857c0.27108-0.27113,0.63838-0.34104,0.82198-0.15745l0.76076,0.75206    C35.33699,14.25967,35.25826,14.62697,34.98719,14.89805z" style="fill:none;stroke:#303030;stroke-width:0.7;stroke-linecap:round;stroke-linejoin:round;stroke-miterlimit:10;"/><path d="    M32.47499,14.57707c-0.02921,0.86764,0.35682,1.39589,1.27172,1.53139" style="fill:none;stroke:#303030;stroke-width:0.7;stroke-linecap:round;stroke-linejoin:round;stroke-miterlimit:10;"/><polyline points="    29.41376,17.63828 12.74702,17.63828 12.74702,33.4642 12.74702,34.84896 29.9577,34.84896 29.9577,19.9281   " style="fill:none;stroke:#303030;stroke-width:0.7;stroke-linecap:round;stroke-linejoin:round;stroke-miterlimit:10;"/></g></g></svg>