<?xml version="1.0" ?><svg data-name="Layer 1" id="Layer_1" viewBox="0 0 64 64" xmlns="http://www.w3.org/2000/svg"><defs><style>.cls-1{fill:none;stroke:#37a849;stroke-linecap:round;stroke-linejoin:round;stroke-width:2px;}.cls-2{fill:#37a849;}</style></defs><title/><path class="cls-1" d="M57,53V15a4,4,0,0,0-4-4H11a4,4,0,0,0-4,4V53Z"/><line class="cls-1" x1="7" x2="57" y1="49" y2="49"/><path class="cls-1" d="M14,11a5,5,0,1,1,5,5"/><path class="cls-1" d="M40,11a5,5,0,1,1,5,5"/><circle class="cls-2" cx="32" cy="25.5" r="2"/><circle class="cls-2" cx="40" cy="25.5" r="2"/><circle class="cls-2" cx="48" cy="25.5" r="2"/><circle class="cls-2" cx="32" cy="33.5" r="2"/><circle class="cls-2" cx="40" cy="33.5" r="2"/><circle class="cls-2" cx="48" cy="33.5" r="2"/><circle class="cls-2" cx="16" cy="33.5" r="2"/><circle class="cls-2" cx="24" cy="33.5" r="2"/><circle class="cls-2" cx="32" cy="41.5" r="2"/><circle class="cls-2" cx="40" cy="41.5" r="2"/><circle class="cls-2" cx="16" cy="41.5" r="2"/><circle class="cls-2" cx="24" cy="41.5" r="2"/></svg>