<svg xmlns="http://www.w3.org/2000/svg" xmlns:xlink="http://www.w3.org/1999/xlink" version="1.1" width="256" height="256" viewBox="0 0 256 256" xml:space="preserve">
<desc>Created with Fabric.js 1.7.22</desc>
<defs>
</defs>
<g transform="translate(128 128) scale(0.72 0.72)" style="">
	<g style="stroke: none; stroke-width: 0; stroke-dasharray: none; stroke-linecap: butt; stroke-linejoin: miter; stroke-miterlimit: 10; fill: none; fill-rule: nonzero; opacity: 1;" transform="translate(-175.05 -175.05000000000004) scale(3.89 3.89)" >
	<path d="M 87.161 23.819 c -1.012 -3.786 -3.994 -6.768 -7.78 -7.78 C 72.518 14.2 45 14.2 45 14.2 s -27.518 0 -34.381 1.839 c -3.786 1.012 -6.768 3.994 -7.78 7.78 C 1 30.682 1 45 1 45 s 0 14.318 1.839 21.181 c 1.012 3.786 3.994 6.768 7.78 7.78 C 17.482 75.8 45 75.8 45 75.8 s 27.518 0 34.381 -1.839 c 3.786 -1.012 6.768 -3.994 7.78 -7.78 C 89 59.318 89 45 89 45 S 89 30.682 87.161 23.819 z" style="stroke: none; stroke-width: 1; stroke-dasharray: none; stroke-linecap: butt; stroke-linejoin: miter; stroke-miterlimit: 10; fill: rgb(255,0,0); fill-rule: nonzero; opacity: 1;" transform=" matrix(1 0 0 1 0 0) " stroke-linecap="round" />
	<path d="M 45 76.8 c -1.129 0 -27.729 -0.021 -34.64 -1.873 c -4.13 -1.104 -7.383 -4.355 -8.488 -8.488 C 0.021 59.529 0 45.59 0 45 s 0.021 -14.529 1.873 -21.44 c 1.104 -4.131 4.357 -7.383 8.488 -8.487 C 17.271 13.222 43.871 13.2 45 13.2 s 27.729 0.021 34.64 1.873 c 4.131 1.104 7.384 4.356 8.487 8.487 C 89.979 30.472 90 44.41 90 45 s -0.021 14.529 -1.873 21.439 c -1.104 4.131 -4.356 7.384 -8.488 8.487 C 72.729 76.778 46.129 76.8 45 76.8 z M 45 15.2 c -0.274 0 -27.465 0.021 -34.122 1.805 c -3.443 0.92 -6.153 3.63 -7.073 7.072 C 2.021 30.736 2 44.858 2 45 s 0.021 14.267 1.805 20.922 c 0.921 3.443 3.631 6.153 7.073 7.073 C 17.535 74.779 44.726 74.8 45 74.8 s 27.465 -0.021 34.122 -1.805 c 3.443 -0.92 6.153 -3.63 7.073 -7.072 C 87.979 59.264 88 45.142 88 45 s -0.021 -14.266 -1.805 -20.922 v 0 c -0.92 -3.442 -3.63 -6.152 -7.072 -7.072 C 72.465 15.221 45.274 15.2 45 15.2 z" style="stroke: none; stroke-width: 1; stroke-dasharray: none; stroke-linecap: butt; stroke-linejoin: miter; stroke-miterlimit: 10; fill: rgb(0,0,0); fill-rule: nonzero; opacity: 1;" transform=" matrix(1 0 0 1 0 0) " stroke-linecap="round" />
	<polygon points="36.2,58.2 59.06,45 36.2,31.8 " style="stroke: none; stroke-width: 1; stroke-dasharray: none; stroke-linecap: butt; stroke-linejoin: miter; stroke-miterlimit: 10; fill: rgb(255,255,255); fill-rule: nonzero; opacity: 1;" transform="  matrix(1 0 0 1 0 0) "/>
	<path d="M 35.2 59.933 V 30.068 L 61.063 45 L 35.2 59.933 z M 37.2 33.532 v 22.936 L 57.063 45 L 37.2 33.532 z" style="stroke: none; stroke-width: 1; stroke-dasharray: none; stroke-linecap: butt; stroke-linejoin: miter; stroke-miterlimit: 10; fill: rgb(0,0,0); fill-rule: nonzero; opacity: 1;" transform=" matrix(1 0 0 1 0 0) " stroke-linecap="round" />
</g>
</g>
</svg>